<?xml version="1.0" standalone="no"?>
<!DOCTYPE svg PUBLIC "-//W3C//DTD SVG 20010904//EN"
 "http://www.w3.org/TR/2001/REC-SVG-20010904/DTD/svg10.dtd">
<svg version="1.0" xmlns="http://www.w3.org/2000/svg"
 width="700.000000pt" height="700.000000pt" viewBox="0 0 700.000000 700.000000"
 preserveAspectRatio="xMidYMid meet">
<metadata>
Created by potrace 1.14, written by Peter Selinger 2001-2017
</metadata>
<g transform="translate(0.000000,700.000000) scale(0.100000,-0.100000)"
fill="#000000" stroke="none">
<path d="M3278 6996 c-1 -2 -41 -6 -88 -10 -47 -4 -101 -9 -120 -12 -139 -19
-252 -40 -360 -66 -69 -16 -135 -31 -147 -34 -40 -8 -264 -84 -367 -126 -245
-97 -594 -291 -766 -425 -8 -6 -51 -40 -95 -74 -426 -331 -813 -825 -1020
-1299 -25 -58 -50 -114 -55 -125 -45 -93 -150 -427 -176 -560 -2 -11 -10 -54
-19 -95 -29 -147 -36 -199 -52 -370 -15 -164 -8 -592 12 -711 2 -13 6 -46 9
-74 9 -78 22 -152 51 -285 52 -244 164 -554 288 -800 61 -122 169 -312 187
-330 3 -3 31 -43 62 -90 170 -255 431 -534 708 -755 92 -74 370 -265 386 -265
4 0 15 -6 23 -14 26 -22 298 -158 408 -204 282 -116 583 -199 862 -238 25 -3
57 -8 71 -10 163 -25 682 -25 842 1 13 2 46 7 73 10 74 11 87 13 120 19 17 4
46 9 65 12 51 8 213 48 300 74 253 74 522 187 734 309 49 28 91 51 93 51 10 0
268 180 353 247 151 118 324 281 450 422 36 41 70 79 75 85 62 67 240 317 320
450 179 298 346 717 411 1031 16 79 54 301 59 350 4 33 9 71 11 85 9 47 11
525 3 605 -15 165 -21 220 -24 225 -2 3 -6 30 -10 60 -3 30 -10 71 -15 90 -5
19 -12 51 -15 70 -13 75 -67 275 -106 392 -326 970 -1073 1762 -2017 2137
-237 95 -542 179 -742 206 -19 3 -46 7 -60 10 -13 2 -54 7 -90 11 -36 3 -76 8
-90 11 -27 5 -536 14 -542 9z m537 -229 c17 -3 57 -8 90 -11 51 -6 114 -15
200 -31 511 -91 1044 -337 1454 -670 195 -159 406 -375 541 -554 14 -18 34
-45 46 -59 40 -52 142 -208 199 -307 159 -275 302 -645 361 -930 19 -92 42
-233 50 -300 3 -33 8 -69 11 -80 9 -38 11 -520 3 -600 -19 -180 -21 -191 -36
-277 -91 -539 -325 -1061 -666 -1489 -134 -169 -319 -358 -468 -479 -30 -25
-57 -48 -60 -51 -3 -3 -56 -43 -118 -87 -275 -198 -540 -336 -849 -442 -182
-63 -412 -122 -536 -136 -29 -4 -55 -8 -58 -10 -3 -2 -35 -6 -70 -9 -35 -4
-75 -9 -89 -12 -42 -9 -541 -11 -610 -3 -36 5 -90 11 -120 15 -80 9 -105 12
-137 19 -15 3 -41 8 -58 11 -97 16 -272 61 -396 101 -588 189 -1118 544 -1506
1009 -41 50 -84 100 -94 112 -42 51 -191 276 -250 378 -53 93 -140 270 -186
381 -91 218 -178 535 -208 759 -4 28 -9 61 -11 75 -26 169 -26 669 1 834 2 11
6 39 10 61 77 528 289 1036 614 1475 30 41 58 77 61 80 3 3 25 30 50 60 52 64
110 128 199 218 57 57 92 90 209 194 66 58 245 189 359 261 434 274 934 445
1438 493 33 3 61 7 63 9 6 5 534 -2 567 -8z"/>
<path d="M3407 5194 c-1 -1 -38 -5 -82 -8 -44 -4 -87 -9 -95 -11 -8 -2 -31 -7
-50 -10 -181 -30 -419 -126 -595 -240 -256 -165 -452 -381 -589 -649 -65 -126
-86 -178 -121 -297 -15 -52 -29 -96 -31 -98 -2 -2 -31 19 -66 46 -35 27 -68
52 -75 56 -11 7 -25 -23 -79 -175 -26 -74 -69 -232 -78 -290 -3 -21 -9 -54
-12 -75 -10 -65 -7 -227 5 -286 36 -165 110 -246 329 -359 114 -59 117 -62
150 -121 169 -304 432 -551 752 -705 143 -69 338 -130 470 -146 25 -4 64 -9
87 -12 65 -9 227 -10 312 -3 307 27 583 127 833 302 206 144 406 367 517 577
21 41 35 51 137 104 199 103 277 176 317 301 56 170 33 422 -64 708 -21 61
-32 90 -60 155 l-14 33 -70 -55 c-39 -31 -73 -56 -77 -56 -3 0 -10 15 -13 33
-34 155 -151 410 -263 567 -77 109 -265 303 -366 377 -300 221 -623 329 -1005
337 -56 1 -103 1 -104 0z"/>
</g>
</svg>
